<?xml version="1.0" encoding="UTF-8"?>
<svg xmlns="http://www.w3.org/2000/svg" xmlns:xlink="http://www.w3.org/1999/xlink" version="1.1" viewBox="0 0 300.1 167">
  <defs>
    <style>
      .cls-1, .cls-2, .cls-3, .cls-4 {
        fill: none;
      }

      .cls-5, .cls-6, .cls-7 {
        fill: #010101;
      }

      .cls-2 {
        stroke: #f68d64;
      }

      .cls-2, .cls-3, .cls-4 {
        stroke-linecap: round;
        stroke-linejoin: round;
      }

      .cls-2, .cls-4 {
        stroke-width: .7px;
      }

      .cls-3 {
        stroke: #010101;
        stroke-width: .5px;
      }

      .cls-8 {
        clip-path: url(#clippath-3);
      }

      .cls-9 {
        clip-path: url(#clippath-2);
      }

      .cls-10 {
        clip-path: url(#clippath-7);
      }

      .cls-11 {
        clip-path: url(#clippath-6);
      }

      .cls-12 {
        clip-path: url(#clippath-8);
      }

      .cls-13 {
        clip-path: url(#clippath-5);
      }

      .cls-4 {
        stroke: #8da0ca;
      }

      .cls-14 {
        fill: #fff;
        opacity: 0;
      }

      .cls-6 {
        font-family: Arial-BoldMT, Arial;
        font-size: 6px;
        font-weight: 700;
      }

      .cls-7 {
        font-family: ArialMT, Arial;
        font-size: 6px;
      }

      .cls-15 {
        clip-path: url(#clippath);
      }
    </style>
    <clipPath id="clippath">
      <rect class="cls-1" x="23.8" y="26.1" width="265.9" height="33.4"/>
    </clipPath>
    <clipPath id="clippath-2">
      <rect class="cls-1" x="6.2" y="21.7" width="287.8" height="135.6"/>
    </clipPath>
    <clipPath id="clippath-3">
      <rect class="cls-1" x="23.8" y="66.2" width="265.9" height="33.4"/>
    </clipPath>
    <clipPath id="clippath-5">
      <rect class="cls-1" x="6.2" y="21.7" width="287.8" height="135.6"/>
    </clipPath>
    <clipPath id="clippath-6">
      <rect class="cls-1" x="23.8" y="106.4" width="265.9" height="33.4"/>
    </clipPath>
    <clipPath id="clippath-7">
      <rect class="cls-1" x="6.2" y="102" width="287.8" height="55.4"/>
    </clipPath>
    <clipPath id="clippath-8">
      <rect class="cls-1" x="6.2" y="21.7" width="287.8" height="135.6"/>
    </clipPath>
  </defs>
  <!-- Generator: Adobe Illustrator 28.7.7, SVG Export Plug-In . SVG Version: 1.2.0 Build 194)  -->
  <g>
    <g id="Layer_1">
      <g>
        <g class="cls-15">
          <polyline class="cls-2" points="24.5 58.2 24.8 58.2 25.1 58.2 25.4 58.2 25.7 58.2 26 58.2 26.4 58.2 26.7 58.2 27 58.2 27.3 58.2 27.6 58.2 27.9 58.2 28.2 58.2 28.6 58.2 28.9 58.2 29.2 58.2 29.5 58.2 29.8 58.2 30.1 58.2 30.5 58.2 30.8 58.2 31.1 58.2 31.4 58.2 31.7 58.2 32 58.2 32.3 58.2 32.7 58.2 33 58.2 33.3 58.2 33.6 58.2 33.9 58.2 34.2 58.2 34.6 58.3 34.9 58.3 35.2 58.3 35.5 58.3 35.8 58.3 36.1 58.3 36.5 58.3 36.8 58.3 37.1 58.3 37.4 58.3 37.7 58.3 38 58.3 38.3 58.3 38.7 58.3 39 58.3 39.3 58.3 39.6 58.3 39.9 58.3 40.2 58.3 40.6 58.3 40.9 58.3 41.2 58.3 41.5 58.3 41.8 58.3 42.1 58.3 42.5 58.3 42.8 58.2 43.1 58.2 43.4 58.2 43.7 58.2 44 58.2 44.3 58.2 44.7 58.2 45 58.2 45.3 58.2 45.6 58.2 45.9 58.2 46.2 58.2 46.6 58.2 46.9 58.2 47.2 58.2 47.5 58.2 47.8 58.2 48.1 58.2 48.4 58.2 48.8 58.2 49.1 58.2 49.4 58.2 49.7 58.3 50 58.3 50.3 58.3 50.7 58.3 51 58.3 51.3 58.3 51.6 58.3 51.9 58.3 52.2 58.3 52.6 58.3 52.9 58.3 53.2 58.3 53.5 58.3 53.8 58.3 54.1 58.3 54.4 58.3 54.8 58.3 55.1 58.3 55.4 58.3 55.7 58.3 56 58.3 56.3 58.3 56.7 58.3 57 58.3 57.3 58.3 57.6 58.3 57.9 58.3 58.2 58.3 58.6 58.3 58.9 58.3 59.2 58.3 59.5 58.3 59.8 58.3 60.1 58.3 60.4 58.3 60.8 58.3 61.1 58.3 61.4 58.3 61.7 58.3 62 58.3 62.3 58.3 62.7 58.3 63 58.3 63.3 58.3 63.6 58.3 63.9 58.3 64.2 58.3 64.5 58.3"/>
          <polyline class="cls-2" points="64.5 58.3 64.9 58.3 65.2 58.3 65.5 58.3 65.8 58.3 66.1 58.3 66.4 58.3 66.8 58.3 67.1 58.3 67.4 58.3 67.7 58.3 68 58.3 68.3 58.3 68.7 58.3 69 58.3 69.3 58.3 69.6 58.3 69.9 58.3 70.2 58.3 70.5 58.3 70.9 58.3 71.2 58.3 71.5 58.3 71.8 58.3 72.1 58.3 72.4 58.3 72.8 58.3 73.1 58.3 73.4 58.3 73.7 58.3 74 58.3 74.3 58.3 74.7 58.3 75 58.3 75.3 58.3 75.6 58.3 75.9 58.3 76.2 58.3 76.5 58.3 76.9 58.3 77.2 58.3 77.5 58.3 77.8 58.3 78.1 58.3 78.4 58.3 78.8 58.3 79.1 58.3 79.4 58.3 79.7 58.3 80 58.3 80.3 58.3 80.6 58.3 81 58.3 81.3 58.3 81.6 58.3 81.9 58.3 82.2 58.3 82.5 58.3 82.9 58.3 83.2 58.3 83.5 58.3 83.8 58.3 84.1 58.3 84.4 58.3 84.8 58.3 85.1 58.3 85.4 58.3 85.7 58.3 86 58.3 86.3 58.3 86.6 58.3 87 58.3 87.3 58.3 87.6 58.3 87.9 58.3 88.2 58.2 88.5 58.2 88.9 58.2 89.2 58.2 89.5 58.2 89.8 58.2 90.1 58.1 90.4 58.1 90.7 58.1 91.1 58 91.4 58 91.7 57.9 92 57.9 92.3 57.9 92.6 57.8 93 57.8 93.3 57.8 93.6 57.8 93.9 57.8 94.2 57.8 94.5 57.9 94.9 57.9 95.2 57.9 95.5 57.9 95.8 58 96.1 58 96.4 58 96.7 58.1 97.1 58.1 97.4 58.1 97.7 58.1 98 58.1 98.3 58.1 98.6 58.1 99 58.2 99.3 58.2 99.6 58.2 99.9 58.2 100.2 58.2 100.5 58.2 100.9 58.2 101.2 58.2 101.5 58.2 101.8 58.2 102.1 58.2 102.4 58.2 102.7 58.2 103.1 58.2 103.4 58.2 103.7 58.2 104 58.2 104.3 58.2 104.6 58.2"/>
          <polyline class="cls-2" points="104.6 58.2 105 58.2 105.3 58.2 105.6 58.2 105.9 58.2 106.2 58.1 106.5 58.1 106.8 58.1 107.2 58.1 107.5 58.1 107.8 58.1 108.1 58.1 108.4 58.1 108.7 58.1 109.1 58.1 109.4 58.1 109.7 58.1 110 58.1 110.3 58.1 110.6 58.1 111 58.1 111.3 58.1 111.6 58.1 111.9 58.1 112.2 58.1 112.5 58.1 112.8 58.1 113.2 58.1 113.5 58.1 113.8 58.1 114.1 58.1 114.4 58.1 114.7 58.1 115.1 58.1 115.4 58.1 115.7 58.1 116 58.1 116.3 58.1 116.6 58.1 117 58.1 117.3 58.1 117.6 58 117.9 58 118.2 58 118.5 58 118.8 58 119.2 58 119.5 58 119.8 58 120.1 58 120.4 57.9 120.7 57.9 121.1 57.8 121.4 57.8 121.7 57.7 122 57.7 122.3 57.7 122.6 57.7 122.9 57.7 123.3 57.8 123.6 57.8 123.9 57.9 124.2 57.9 124.5 57.9 124.8 57.9 125.2 57.9 125.5 57.9 125.8 57.9 126.1 57.9 126.4 57.9 126.7 57.9 127.1 57.9 127.4 57.9 127.7 57.9 128 57.9 128.3 57.9 128.6 57.9 128.9 57.9 129.3 57.9 129.6 57.9 129.9 57.9 130.2 57.9 130.5 57.9 130.8 57.9 131.2 57.9 131.5 57.9 131.8 57.9 132.1 57.9 132.4 57.9 132.7 57.9 133.1 57.9 133.4 57.9 133.7 57.9 134 57.9 134.3 57.9 134.6 57.9 134.9 57.9 135.3 57.8 135.6 57.8 135.9 57.8 136.2 57.8 136.5 57.8 136.8 57.8 137.2 57.8 137.5 57.8 137.8 57.8 138.1 57.8 138.4 57.8 138.7 57.8 139 57.8 139.4 57.8 139.7 57.8 140 57.8 140.3 57.8 140.6 57.7 140.9 57.7 141.3 57.6 141.6 57.6 141.9 57.5 142.2 57.5 142.5 57.5 142.8 57.5 143.2 57.5 143.5 57.5 143.8 57.5 144.1 57.5 144.4 57.6 144.7 57.6"/>
          <polyline class="cls-2" points="144.7 57.6 145 57.6 145.4 57.6 145.7 57.6 146 57.7 146.3 57.7 146.6 57.7 146.9 57.7 147.3 57.7 147.6 57.7 147.9 57.7 148.2 57.7 148.5 57.7 148.8 57.6 149.2 57.4 149.5 56.8 149.8 55.5 150.1 53.4 150.4 50.5 150.7 46.8 151 42.9 151.4 39 151.7 35.7 152 33 152.3 30.9 152.6 29.4 152.9 28.3 153.3 27.7 153.6 27.3 153.9 27.4 154.2 27.7 154.5 28.2 154.8 29 155.1 29.8 155.5 30.8 155.8 31.7 156.1 32.6 156.4 33.6 156.7 34.5 157 35.3 157.4 36.2 157.7 37 158 37.8 158.3 38.6 158.6 39.4 158.9 40.2 159.3 40.9 159.6 41.6 159.9 42.3 160.2 43 160.5 43.7 160.8 44.3 161.1 45 161.5 45.6 161.8 46.2 162.1 46.8 162.4 47.4 162.7 48 163 48.5 163.4 49.1 163.7 49.6 164 50.1 164.3 50.7 164.6 51.1 164.9 51.6 165.3 52.1 165.6 52.5 165.9 53 166.2 53.4 166.5 53.8 166.8 54.1 167.1 54.5 167.5 54.8 167.8 55.1 168.1 55.4 168.4 55.6 168.7 55.9 169 56.1 169.4 56.3 169.7 56.4 170 56.6 170.3 56.7 170.6 56.8 170.9 56.9 171.2 57 171.6 57 171.9 57.1 172.2 57.2 172.5 57.2 172.8 57.3 173.1 57.3 173.5 57.4 173.8 57.4 174.1 57.4 174.4 57.4 174.7 57.5 175 57.5 175.4 57.5 175.7 57.5 176 57.5 176.3 57.5 176.6 57.5 176.9 57.5 177.2 57.6 177.6 57.6 177.9 57.6 178.2 57.6 178.5 57.6 178.8 57.6 179.1 57.6 179.5 57.6 179.8 57.6 180.1 57.6 180.4 57.6 180.7 57.5 181 57.5 181.3 57.5 181.7 57.5 182 57.5 182.3 57.5 182.6 57.5 182.9 57.4 183.2 57.4 183.6 57.4 183.9 57.4 184.2 57.4 184.5 57.4 184.8 57.4"/>
          <polyline class="cls-2" points="184.8 57.4 185.1 57.5 185.5 57.5 185.8 57.5 186.1 57.5 186.4 57.5 186.7 57.5 187 57.5 187.3 57.5 187.7 57.5 188 57.5 188.3 57.5 188.6 57.5 188.9 57.5 189.2 57.5 189.6 57.5 189.9 57.5 190.2 57.5 190.5 57.5 190.8 57.5 191.1 57.5 191.5 57.5 191.8 57.5 192.1 57.5 192.4 57.5 192.7 57.5 193 57.5 193.3 57.5 193.7 57.5 194 57.5 194.3 57.5 194.6 57.5 194.9 57.5 195.2 57.5 195.6 57.5 195.9 57.5 196.2 57.5 196.5 57.5 196.8 57.4 197.1 57.4 197.4 57.4 197.8 57.4 198.1 57.4 198.4 57.4 198.7 57.4 199 57.4 199.3 57.4 199.7 57.4 200 57.4 200.3 57.4 200.6 57.4 200.9 57.4 201.2 57.4 201.6 57.4 201.9 57.4 202.2 57.4 202.5 57.4 202.8 57.4 203.1 57.4 203.4 57.4 203.8 57.4 204.1 57.3 204.4 57.3 204.7 57.3 205 57.3 205.3 57.3 205.7 57.3 206 57.3 206.3 57.3 206.6 57.3 206.9 57.3 207.2 57.3 207.6 57.3 207.9 57.3 208.2 57.3 208.5 57.3 208.8 57.3 209.1 57.3 209.4 57.3 209.8 57.3 210.1 57.3 210.4 57.3 210.7 57.3 211 57.3 211.3 57.3 211.7 57.3 212 57.3 212.3 57.3 212.6 57.3 212.9 57.3 213.2 57.3 213.5 57.3 213.9 57.3 214.2 57.3 214.5 57.3 214.8 57.3 215.1 57.3 215.4 57.3 215.8 57.3 216.1 57.3 216.4 57.3 216.7 57.3 217 57.3 217.3 57.3 217.7 57.2 218 57.2 218.3 57.2 218.6 57.2 218.9 57.2 219.2 57.2 219.5 57.2 219.9 57.2 220.2 57.2 220.5 57.2 220.8 57.2 221.1 57.2 221.4 57.2 221.8 57.2 222.1 57.2 222.4 57.2 222.7 57.2 223 57.2 223.3 57.2 223.7 57.2 224 57.2 224.3 57.2 224.6 57.2 224.9 57.2"/>
          <polyline class="cls-2" points="224.9 57.2 225.2 57.2 225.5 57.2 225.9 57.2 226.2 57.2 226.5 57.2 226.8 57.2 227.1 57.2 227.4 57.2 227.8 57.2 228.1 57.1 228.4 57.1 228.7 57.1 229 57.1 229.3 57.1 229.6 57.1 230 57.1 230.3 57.1 230.6 57.1 230.9 57 231.2 57 231.5 56.9 231.9 56.9 232.2 56.9 232.5 56.9 232.8 56.9 233.1 56.9 233.4 56.9 233.8 56.9 234.1 56.9 234.4 57 234.7 57 235 57 235.3 57 235.6 57 236 57 236.3 57 236.6 57 236.9 57 237.2 57 237.5 57 237.9 57 238.2 57 238.5 57 238.8 57 239.1 57 239.4 57 239.8 57 240.1 57 240.4 57 240.7 56.9 241 56.9 241.3 56.9 241.6 56.9 242 56.9 242.3 56.9 242.6 56.9 242.9 56.9 243.2 56.9 243.5 56.9 243.9 56.9 244.2 56.9 244.5 56.9 244.8 56.9 245.1 56.9 245.4 56.9 245.7 56.8 246.1 56.8 246.4 56.8 246.7 56.8 247 56.8 247.3 56.8 247.6 56.8 248 56.8 248.3 56.8 248.6 56.8 248.9 56.8 249.2 56.8 249.5 56.8 249.9 56.8 250.2 56.7 250.5 56.7 250.8 56.7 251.1 56.7 251.4 56.7 251.7 56.7 252.1 56.7 252.4 56.7 252.7 56.7 253 56.7 253.3 56.7 253.6 56.6 254 56.6 254.3 56.6 254.6 56.6 254.9 56.6 255.2 56.6 255.5 56.6 255.9 56.6 256.2 56.6 256.5 56.6 256.8 56.6 257.1 56.6 257.4 56.5 257.7 56.5 258.1 56.5 258.4 56.5 258.7 56.5 259 56.5 259.3 56.5 259.6 56.5 260 56.5 260.3 56.5 260.6 56.5 260.9 56.5 261.2 56.4 261.5 56.4 261.8 56.4 262.2 56.4 262.5 56.4 262.8 56.4 263.1 56.4 263.4 56.4 263.7 56.4 264.1 56.4 264.4 56.4 264.7 56.3 265 56.3"/>
          <polyline class="cls-2" points="265 56.3 265.3 56.3 265.6 56.3 266 56.3 266.3 56.3 266.6 56.3 266.9 56.3 267.2 56.3 267.5 56.3 267.8 56.2 268.2 56.2 268.5 56.2 268.8 56.2 269.1 56.2 269.4 56.2 269.7 56.2 270.1 56.2 270.4 56.2 270.7 56.2 271 56.2 271.3 56.2 271.6 56.1 271.9 56.1 272.3 56.1 272.6 56.1 272.9 56.1 273.2 56.1 273.5 56.1 273.8 56.1 274.2 56.1 274.5 56.1 274.8 56.1 275.1 56.1 275.4 56.1 275.7 56 276.1 56 276.4 56 276.7 56 277 56 277.3 56 277.6 56 277.9 56 278.3 56 278.6 56 278.9 56 279.2 56 279.5 56 279.8 56 280.2 56 280.5 56 280.8 56 281.1 56 281.4 55.9 281.7 55.9 282.1 55.9 282.4 55.9 282.7 55.9 283 55.9 283.3 55.9 283.6 55.9 283.9 55.9 284.3 55.9 284.6 55.9 284.9 55.9 285.2 55.9 285.5 55.9 285.8 55.9 286.2 55.9 286.5 55.9 286.8 55.9 287.1 55.9 287.4 55.9 287.7 55.9 288 55.9 288.4 55.9 288.7 55.9 289 55.9 289.3 55.9"/>
        </g>
        <g class="cls-9">
          <line class="cls-3" x1="90.4" y1="59.5" x2="279.8" y2="59.5"/>
          <line class="cls-3" x1="90.4" y1="59.5" x2="90.4" y2="61.7"/>
          <line class="cls-3" x1="185.1" y1="59.5" x2="185.1" y2="61.7"/>
          <line class="cls-3" x1="279.8" y1="59.5" x2="279.8" y2="61.7"/>
          <g>
            <rect class="cls-14" x="23.8" y="26.1" width="265.9" height="33.4"/>
            <rect class="cls-3" x="23.8" y="26.1" width="265.9" height="33.4"/>
          </g>
        </g>
        <g class="cls-8">
          <polyline class="cls-4" points="24.5 98.1 24.8 98.2 25.1 98.3 25.4 98.4 25.7 98.4 26 98.4 26.4 98.4 26.7 98.4 27 98.4 27.3 98.4 27.6 98.4 27.9 98.4 28.2 98.4 28.6 98.4 28.9 98.4 29.2 98.4 29.5 98.4 29.8 98.4 30.1 98.4 30.5 98.4 30.8 98.4 31.1 98.4 31.4 98.4 31.7 98.4 32 98.4 32.3 98.4 32.7 98.4 33 98.4 33.3 98.4 33.6 98.4 33.9 98.4 34.2 98.4 34.6 98.4 34.9 98.4 35.2 98.4 35.5 98.4 35.8 98.4 36.1 98.4 36.5 98.4 36.8 98.4 37.1 98.4 37.4 98.4 37.7 98.4 38 98.4 38.3 98.4 38.7 98.4 39 98.4 39.3 98.4 39.6 98.4 39.9 98.4 40.2 98.4 40.6 98.4 40.9 98.4 41.2 98.4 41.5 98.4 41.8 98.4 42.1 98.4 42.5 98.4 42.8 98.4 43.1 98.4 43.4 98.4 43.7 98.4 44 98.4 44.3 98.4 44.7 98.4 45 98.4 45.3 98.4 45.6 98.4 45.9 98.4 46.2 98.4 46.6 98.4 46.9 98.4 47.2 98.4 47.5 98.4 47.8 98.4 48.1 98.4 48.4 98.4 48.8 98.4 49.1 98.4 49.4 98.4 49.7 98.4 50 98.4 50.3 98.4 50.7 98.4 51 98.4 51.3 98.4 51.6 98.4 51.9 98.4 52.2 98.4 52.6 98.4 52.9 98.4 53.2 98.4 53.5 98.4 53.8 98.4 54.1 98.4 54.4 98.4 54.8 98.4 55.1 98.4 55.4 98.4 55.7 98.4 56 98.4 56.3 98.4 56.7 98.4 57 98.4 57.3 98.4 57.6 98.4 57.9 98.4 58.2 98.4 58.6 98.4 58.9 98.4 59.2 98.4 59.5 98.4 59.8 98.4 60.1 98.4 60.4 98.4 60.8 98.4 61.1 98.4 61.4 98.4 61.7 98.4 62 98.4 62.3 98.4 62.7 98.4 63 98.4 63.3 98.4 63.6 98.4 63.9 98.4 64.2 98.4 64.5 98.4"/>
          <polyline class="cls-4" points="64.5 98.4 64.9 98.4 65.2 98.4 65.5 98.4 65.8 98.4 66.1 98.4 66.4 98.4 66.8 98.4 67.1 98.4 67.4 98.4 67.7 98.4 68 98.4 68.3 98.4 68.7 98.4 69 98.4 69.3 98.4 69.6 98.4 69.9 98.4 70.2 98.4 70.5 98.4 70.9 98.4 71.2 98.4 71.5 98.4 71.8 98.4 72.1 98.4 72.4 98.4 72.8 98.4 73.1 98.4 73.4 98.4 73.7 98.4 74 98.4 74.3 98.4 74.7 98.4 75 98.4 75.3 98.4 75.6 98.4 75.9 98.4 76.2 98.4 76.5 98.4 76.9 98.4 77.2 98.4 77.5 98.4 77.8 98.4 78.1 98.4 78.4 98.4 78.8 98.4 79.1 98.4 79.4 98.4 79.7 98.4 80 98.4 80.3 98.4 80.6 98.4 81 98.4 81.3 98.4 81.6 98.4 81.9 98.4 82.2 98.4 82.5 98.4 82.9 98.4 83.2 98.4 83.5 98.4 83.8 98.4 84.1 98.4 84.4 98.4 84.8 98.4 85.1 98.4 85.4 98.4 85.7 98.4 86 98.4 86.3 98.4 86.6 98.4 87 98.4 87.3 98.4 87.6 98.4 87.9 98.4 88.2 98.4 88.5 98.4 88.9 98.4 89.2 98.4 89.5 98.4 89.8 98.4 90.1 98.4 90.4 98.4 90.7 98.4 91.1 98.4 91.4 98.4 91.7 98.4 92 98.4 92.3 98.4 92.6 98.4 93 98.4 93.3 98.4 93.6 98.4 93.9 98.4 94.2 98.4 94.5 98.4 94.9 98.4 95.2 98.4 95.5 98.4 95.8 98.4 96.1 98.4 96.4 98.4 96.7 98.4 97.1 98.4 97.4 98.4 97.7 98.4 98 98.4 98.3 98.4 98.6 98.4 99 98.4 99.3 98.4 99.6 98.4 99.9 98.4 100.2 98.4 100.5 98.4 100.9 98.4 101.2 98.4 101.5 98.4 101.8 98.4 102.1 98.4 102.4 98.4 102.7 98.4 103.1 98.4 103.4 98.4 103.7 98.4 104 98.4 104.3 98.4 104.6 98.4"/>
          <polyline class="cls-4" points="104.6 98.4 105 98.4 105.3 98.4 105.6 98.4 105.9 98.4 106.2 98.4 106.5 98.4 106.8 98.4 107.2 98.4 107.5 98.4 107.8 98.4 108.1 98.4 108.4 98.4 108.7 98.4 109.1 98.4 109.4 98.4 109.7 98.4 110 98.4 110.3 98.4 110.6 98.4 111 98.4 111.3 98.4 111.6 98.4 111.9 98.4 112.2 98.4 112.5 98.4 112.8 98.4 113.2 98.4 113.5 98.4 113.8 98.4 114.1 98.4 114.4 98.4 114.7 98.4 115.1 98.4 115.4 98.4 115.7 98.4 116 98.4 116.3 98.4 116.6 98.4 117 98.4 117.3 98.4 117.6 98.4 117.9 98.4 118.2 98.4 118.5 98.4 118.8 98.4 119.2 98.4 119.5 98.4 119.8 98.4 120.1 98.4 120.4 98.3 120.7 98 121.1 97.2 121.4 95.6 121.7 93 122 89.2 122.3 84.8 122.6 80.1 122.9 75.9 123.3 72.3 123.6 69.7 123.9 68.1 124.2 67.5 124.5 67.6 124.8 68.3 125.2 69.3 125.5 70.6 125.8 72 126.1 73.5 126.4 74.9 126.7 76.3 127.1 77.7 127.4 79 127.7 80.3 128 81.6 128.3 82.8 128.6 84 128.9 85.2 129.3 86.4 129.6 87.5 129.9 88.6 130.2 89.6 130.5 90.6 130.8 91.5 131.2 92.4 131.5 93.2 131.8 94 132.1 94.6 132.4 95.3 132.7 95.8 133.1 96.3 133.4 96.7 133.7 97.1 134 97.3 134.3 97.6 134.6 97.8 134.9 97.9 135.3 98 135.6 98.1 135.9 98.1 136.2 98.2 136.5 98.2 136.8 98.2 137.2 98.3 137.5 98.3 137.8 98.3 138.1 98.3 138.4 98.3 138.7 98.3 139 98.3 139.4 98.3 139.7 98.3 140 98.3 140.3 98.3 140.6 98.3 140.9 98.3 141.3 98.3 141.6 98.3 141.9 98.3 142.2 98.3 142.5 98.3 142.8 98.3 143.2 98.3 143.5 98.3 143.8 98.3 144.1 98.3 144.4 98.3 144.7 98.3"/>
          <polyline class="cls-4" points="144.7 98.3 145 98.3 145.4 98.3 145.7 98.3 146 98.3 146.3 98.3 146.6 98.3 146.9 98.3 147.3 98.3 147.6 98.3 147.9 98.3 148.2 98.3 148.5 98.3 148.8 98.3 149.2 98.3 149.5 98.3 149.8 98.3 150.1 98.3 150.4 98.3 150.7 98.3 151 98.3 151.4 98.3 151.7 98.3 152 98.3 152.3 98.3 152.6 98.3 152.9 98.3 153.3 98.3 153.6 98.3 153.9 98.3 154.2 98.3 154.5 98.3 154.8 98.3 155.1 98.3 155.5 98.3 155.8 98.3 156.1 98.3 156.4 98.3 156.7 98.2 157 98.2 157.4 98.3 157.7 98.3 158 98.3 158.3 98.3 158.6 98.3 158.9 98.2 159.3 98.2 159.6 98.2 159.9 98.2 160.2 98.2 160.5 98.2 160.8 98.2 161.1 98.2 161.5 98.2 161.8 98.2 162.1 98.2 162.4 98.2 162.7 98.2 163 98.3 163.4 98.3 163.7 98.3 164 98.3 164.3 98.3 164.6 98.3 164.9 98.3 165.3 98.3 165.6 98.3 165.9 98.3 166.2 98.3 166.5 98.3 166.8 98.3 167.1 98.3 167.5 98.3 167.8 98.3 168.1 98.3 168.4 98.3 168.7 98.3 169 98.3 169.4 98.3 169.7 98.3 170 98.3 170.3 98.3 170.6 98.3 170.9 98.3 171.2 98.3 171.6 98.3 171.9 98.3 172.2 98.3 172.5 98.3 172.8 98.3 173.1 98.3 173.5 98.3 173.8 98.3 174.1 98.3 174.4 98.3 174.7 98.3 175 98.3 175.4 98.3 175.7 98.3 176 98.3 176.3 98.3 176.6 98.3 176.9 98.3 177.2 98.3 177.6 98.3 177.9 98.3 178.2 98.3 178.5 98.3 178.8 98.3 179.1 98.3 179.5 98.3 179.8 98.3 180.1 98.3 180.4 98.3 180.7 98.3 181 98.3 181.3 98.3 181.7 98.3 182 98.3 182.3 98.3 182.6 98.3 182.9 98.3 183.2 98.3 183.6 98.3 183.9 98.3 184.2 98.3 184.5 98.3 184.8 98.3"/>
          <polyline class="cls-4" points="184.8 98.3 185.1 98.3 185.5 98.3 185.8 98.3 186.1 98.3 186.4 98.3 186.7 98.3 187 98.3 187.3 98.3 187.7 98.3 188 98.3 188.3 98.3 188.6 98.3 188.9 98.3 189.2 98.3 189.6 98.3 189.9 98.3 190.2 98.3 190.5 98.3 190.8 98.3 191.1 98.3 191.5 98.3 191.8 98.3 192.1 98.3 192.4 98.3 192.7 98.3 193 98.3 193.3 98.3 193.7 98.3 194 98.3 194.3 98.3 194.6 98.3 194.9 98.3 195.2 98.3 195.6 98.3 195.9 98.3 196.2 98.3 196.5 98.3 196.8 98.3 197.1 98.3 197.4 98.3 197.8 98.3 198.1 98.3 198.4 98.3 198.7 98.3 199 98.3 199.3 98.3 199.7 98.3 200 98.3 200.3 98.3 200.6 98.3 200.9 98.3 201.2 98.3 201.6 98.3 201.9 98.3 202.2 98.3 202.5 98.3 202.8 98.3 203.1 98.3 203.4 98.3 203.8 98.3 204.1 98.3 204.4 98.3 204.7 98.3 205 98.3 205.3 98.3 205.7 98.3 206 98.3 206.3 98.3 206.6 98.3 206.9 98.3 207.2 98.3 207.6 98.3 207.9 98.3 208.2 98.3 208.5 98.3 208.8 98.3 209.1 98.3 209.4 98.3 209.8 98.3 210.1 98.3 210.4 98.3 210.7 98.3 211 98.3 211.3 98.3 211.7 98.3 212 98.3 212.3 98.3 212.6 98.3 212.9 98.3 213.2 98.3 213.5 98.3 213.9 98.3 214.2 98.3 214.5 98.3 214.8 98.3 215.1 98.3 215.4 98.3 215.8 98.3 216.1 98.3 216.4 98.3 216.7 98.3 217 98.3 217.3 98.3 217.7 98.3 218 98.3 218.3 98.3 218.6 98.3 218.9 98.3 219.2 98.3 219.5 98.3 219.9 98.3 220.2 98.3 220.5 98.3 220.8 98.3 221.1 98.3 221.4 98.3 221.8 98.3 222.1 98.3 222.4 98.3 222.7 98.3 223 98.3 223.3 98.3 223.7 98.3 224 98.3 224.3 98.3 224.6 98.3 224.9 98.3"/>
          <polyline class="cls-4" points="224.9 98.3 225.2 98.3 225.5 98.3 225.9 98.3 226.2 98.3 226.5 98.3 226.8 98.3 227.1 98.3 227.4 98.3 227.8 98.3 228.1 98.3 228.4 98.3 228.7 98.3 229 98.3 229.3 98.3 229.6 98.3 230 98.3 230.3 98.3 230.6 98.3 230.9 98.3 231.2 98.3 231.5 98.3 231.9 98.3 232.2 98.3 232.5 98.3 232.8 98.3 233.1 98.3 233.4 98.3 233.8 98.3 234.1 98.3 234.4 98.3 234.7 98.3 235 98.3 235.3 98.3 235.6 98.3 236 98.3 236.3 98.3 236.6 98.3 236.9 98.3 237.2 98.3 237.5 98.3 237.9 98.3 238.2 98.3 238.5 98.3 238.8 98.3 239.1 98.3 239.4 98.3 239.8 98.3 240.1 98.3 240.4 98.3 240.7 98.3 241 98.3 241.3 98.3 241.6 98.3 242 98.3 242.3 98.3 242.6 98.3 242.9 98.3 243.2 98.3 243.5 98.3 243.9 98.3 244.2 98.3 244.5 98.3 244.8 98.3 245.1 98.2 245.4 98.2 245.7 98.2 246.1 98.2 246.4 98.2 246.7 98.2 247 98.2 247.3 98.2 247.6 98.2 248 98.2 248.3 98.2 248.6 98.2 248.9 98.2 249.2 98.2 249.5 98.2 249.9 98.2 250.2 98.2 250.5 98.2 250.8 98.2 251.1 98.2 251.4 98.2 251.7 98.2 252.1 98.2 252.4 98.2 252.7 98.2 253 98.2 253.3 98.2 253.6 98.2 254 98.2 254.3 98.2 254.6 98.2 254.9 98.2 255.2 98.2 255.5 98.2 255.9 98.2 256.2 98.2 256.5 98.2 256.8 98.2 257.1 98.2 257.4 98.2 257.7 98.2 258.1 98.2 258.4 98.2 258.7 98.2 259 98.2 259.3 98.2 259.6 98.2 260 98.2 260.3 98.2 260.6 98.2 260.9 98.2 261.2 98.2 261.5 98.2 261.8 98.2 262.2 98.2 262.5 98.2 262.8 98.2 263.1 98.2 263.4 98.2 263.7 98.2 264.1 98.2 264.4 98.2 264.7 98.2 265 98.2"/>
          <polyline class="cls-4" points="265 98.2 265.3 98.2 265.6 98.2 266 98.2 266.3 98.2 266.6 98.2 266.9 98.2 267.2 98.2 267.5 98.2 267.8 98.2 268.2 98.2 268.5 98.2 268.8 98.2 269.1 98.2 269.4 98.2 269.7 98.2 270.1 98.2 270.4 98.2 270.7 98.2 271 98.2 271.3 98.2 271.6 98.2 271.9 98.2 272.3 98.2 272.6 98.2 272.9 98.2 273.2 98.2 273.5 98.2 273.8 98.2 274.2 98.2 274.5 98.2 274.8 98.2 275.1 98.2 275.4 98.2 275.7 98.2 276.1 98.2 276.4 98.2 276.7 98.2 277 98.2 277.3 98.1 277.6 98.1 277.9 98.1 278.3 98.1 278.6 98.1 278.9 98.1 279.2 98.1 279.5 98.1 279.8 98.1 280.2 98.1 280.5 98.1 280.8 98.1 281.1 98.1 281.4 98.1 281.7 98.1 282.1 98.1 282.4 98.1 282.7 98.1 283 98.1 283.3 98.1 283.6 98.1 283.9 98.1 284.3 98.1 284.6 98.1 284.9 98.1 285.2 98.1 285.5 98.1 285.8 98.1 286.2 98.1 286.5 98.1 286.8 98.1 287.1 98.1 287.4 98.1 287.7 98.1 288 98.1 288.4 98.1 288.7 98.1 289 98.1 289.3 98.1"/>
        </g>
        <g class="cls-13">
          <line class="cls-3" x1="90.4" y1="99.7" x2="279.8" y2="99.7"/>
          <line class="cls-3" x1="90.4" y1="99.7" x2="90.4" y2="101.9"/>
          <line class="cls-3" x1="185.1" y1="99.7" x2="185.1" y2="101.9"/>
          <line class="cls-3" x1="279.8" y1="99.7" x2="279.8" y2="101.9"/>
          <g>
            <rect class="cls-14" x="23.8" y="66.2" width="265.9" height="33.4"/>
            <rect class="cls-3" x="23.8" y="66.2" width="265.9" height="33.4"/>
          </g>
        </g>
        <g class="cls-11">
          <polyline class="cls-4" points="24.5 136.4 24.8 137.2 25.1 137.8 25.4 138.2 25.7 138.4 26 138.5 26.4 138.6 26.7 138.5 27 138.5 27.3 138.5 27.6 138.5 27.9 138.5 28.2 138.5 28.6 138.5 28.9 138.5 29.2 138.5 29.5 138.5 29.8 138.5 30.1 138.5 30.5 138.5 30.8 138.5 31.1 138.5 31.4 138.5 31.7 138.5 32 138.5 32.3 138.5 32.7 138.5 33 138.5 33.3 138.5 33.6 138.5 33.9 138.5 34.2 138.5 34.6 138.5 34.9 138.5 35.2 138.5 35.5 138.5 35.8 138.5 36.1 138.5 36.5 138.5 36.8 138.5 37.1 138.5 37.4 138.5 37.7 138.5 38 138.5 38.3 138.5 38.7 138.5 39 138.4 39.3 138.3 39.6 138.2 39.9 137.9 40.2 137.3 40.6 136.5 40.9 135.3 41.2 133.7 41.5 131.7 41.8 129.3 42.1 126.7 42.5 124.1 42.8 121.5 43.1 119.2 43.4 117 43.7 115.2 44 113.5 44.3 112.1 44.7 110.9 45 109.8 45.3 109 45.6 108.3 45.9 107.8 46.2 107.6 46.6 107.6 46.9 108 47.2 108.6 47.5 109.5 47.8 110.8 48.1 112.4 48.4 114.2 48.8 116.3 49.1 118.6 49.4 120.9 49.7 123.2 50 125.5 50.3 127.5 50.7 129.4 51 131.1 51.3 132.5 51.6 133.7 51.9 134.7 52.2 135.5 52.6 136.1 52.9 136.7 53.2 137.1 53.5 137.4 53.8 137.7 54.1 137.9 54.4 138.1 54.8 138.2 55.1 138.3 55.4 138.4 55.7 138.4 56 138.4 56.3 138.5 56.7 138.5 57 138.5 57.3 138.5 57.6 138.5 57.9 138.5 58.2 138.5 58.6 138.5 58.9 138.5 59.2 138.5 59.5 138.5 59.8 138.5 60.1 138.5 60.4 138.5 60.8 138.5 61.1 138.5 61.4 138.5 61.7 138.5 62 138.5 62.3 138.5 62.7 138.5 63 138.5 63.3 138.5 63.6 138.5 63.9 138.5 64.2 138.6 64.5 138.6"/>
          <polyline class="cls-4" points="64.5 138.6 64.9 138.6 65.2 138.6 65.5 138.6 65.8 138.6 66.1 138.6 66.4 138.6 66.8 138.6 67.1 138.6 67.4 138.6 67.7 138.6 68 138.6 68.3 138.6 68.7 138.6 69 138.6 69.3 138.6 69.6 138.6 69.9 138.6 70.2 138.6 70.5 138.6 70.9 138.6 71.2 138.6 71.5 138.6 71.8 138.6 72.1 138.6 72.4 138.6 72.8 138.6 73.1 138.6 73.4 138.6 73.7 138.6 74 138.6 74.3 138.6 74.7 138.6 75 138.6 75.3 138.6 75.6 138.6 75.9 138.6 76.2 138.6 76.5 138.6 76.9 138.6 77.2 138.6 77.5 138.6 77.8 138.6 78.1 138.6 78.4 138.6 78.8 138.6 79.1 138.6 79.4 138.6 79.7 138.6 80 138.5 80.3 138.5 80.6 138.5 81 138.5 81.3 138.5 81.6 138.5 81.9 138.5 82.2 138.5 82.5 138.5 82.9 138.5 83.2 138.5 83.5 138.5 83.8 138.5 84.1 138.5 84.4 138.5 84.8 138.5 85.1 138.5 85.4 138.5 85.7 138.5 86 138.5 86.3 138.5 86.6 138.5 87 138.5 87.3 138.5 87.6 138.5 87.9 138.5 88.2 138.5 88.5 138.5 88.9 138.5 89.2 138.5 89.5 138.5 89.8 138.5 90.1 138.5 90.4 138.5 90.7 138.5 91.1 138.5 91.4 138.5 91.7 138.5 92 138.5 92.3 138.5 92.6 138.5 93 138.5 93.3 138.5 93.6 138.5 93.9 138.5 94.2 138.4 94.5 138.4 94.9 138.4 95.2 138.4 95.5 138.4 95.8 138.3 96.1 138.3 96.4 138.3 96.7 138.3 97.1 138.3 97.4 138.2 97.7 138.2 98 138.2 98.3 138.2 98.6 138.2 99 138.2 99.3 138.2 99.6 138.2 99.9 138.2 100.2 138.2 100.5 138.3 100.9 138.3 101.2 138.3 101.5 138.3 101.8 138.3 102.1 138.3 102.4 138.3 102.7 138.4 103.1 138.4 103.4 138.4 103.7 138.4 104 138.4 104.3 138.4 104.6 138.4"/>
          <polyline class="cls-4" points="104.6 138.4 105 138.4 105.3 138.4 105.6 138.4 105.9 138.4 106.2 138.4 106.5 138.4 106.8 138.4 107.2 138.4 107.5 138.4 107.8 138.4 108.1 138.4 108.4 138.3 108.7 138.3 109.1 138.3 109.4 138.3 109.7 138.3 110 138.3 110.3 138.3 110.6 138.3 111 138.3 111.3 138.3 111.6 138.3 111.9 138.3 112.2 138.3 112.5 138.3 112.8 138.3 113.2 138.3 113.5 138.3 113.8 138.3 114.1 138.3 114.4 138.3 114.7 138.2 115.1 138.2 115.4 138.2 115.7 138.2 116 138.2 116.3 138.2 116.6 138.2 117 138.2 117.3 138.2 117.6 138.2 117.9 138.2 118.2 138.2 118.5 138.2 118.8 138.2 119.2 138.2 119.5 138.2 119.8 138.2 120.1 138.1 120.4 138.1 120.7 138.1 121.1 138.1 121.4 138.1 121.7 138.1 122 138.1 122.3 138.1 122.6 138 122.9 138 123.3 138 123.6 138 123.9 138 124.2 138 124.5 138 124.8 138 125.2 138 125.5 138 125.8 138 126.1 138 126.4 138 126.7 138 127.1 138 127.4 138 127.7 137.9 128 137.9 128.3 137.9 128.6 137.9 128.9 137.9 129.3 137.9 129.6 137.9 129.9 137.9 130.2 137.9 130.5 137.9 130.8 137.9 131.2 137.9 131.5 137.9 131.8 137.9 132.1 137.9 132.4 137.8 132.7 137.8 133.1 137.8 133.4 137.8 133.7 137.8 134 137.8 134.3 137.8 134.6 137.8 134.9 137.8 135.3 137.8 135.6 137.8 135.9 137.8 136.2 137.8 136.5 137.7 136.8 137.7 137.2 137.7 137.5 137.7 137.8 137.7 138.1 137.7 138.4 137.7 138.7 137.7 139 137.7 139.4 137.7 139.7 137.7 140 137.7 140.3 137.7 140.6 137.7 140.9 137.6 141.3 137.6 141.6 137.6 141.9 137.6 142.2 137.5 142.5 137.4 142.8 137.4 143.2 137.3 143.5 137.2 143.8 137.1 144.1 137.1 144.4 137.1 144.7 137"/>
          <polyline class="cls-4" points="144.7 137 145 137.1 145.4 137.1 145.7 137.1 146 137.1 146.3 137.2 146.6 137.2 146.9 137.3 147.3 137.3 147.6 137.3 147.9 137.2 148.2 137 148.5 136.5 148.8 135.6 149.2 134.2 149.5 132.4 149.8 130.2 150.1 128.1 150.4 126.1 150.7 124.4 151 123.1 151.4 122.1 151.7 121.3 152 120.9 152.3 120.6 152.6 120.5 152.9 120.6 153.3 120.9 153.6 121.3 153.9 121.8 154.2 122.3 154.5 122.8 154.8 123.3 155.1 123.8 155.5 124.4 155.8 124.9 156.1 125.3 156.4 125.8 156.7 126.3 157 126.8 157.4 127.2 157.7 127.7 158 128.1 158.3 128.5 158.6 128.9 158.9 129.3 159.3 129.7 159.6 130.1 159.9 130.4 160.2 130.8 160.5 131.1 160.8 131.4 161.1 131.8 161.5 132.1 161.8 132.4 162.1 132.7 162.4 133 162.7 133.3 163 133.6 163.4 133.8 163.7 134.1 164 134.4 164.3 134.6 164.6 134.9 164.9 135.1 165.3 135.3 165.6 135.5 165.9 135.8 166.2 136 166.5 136.2 166.8 136.3 167.1 136.5 167.5 136.7 167.8 136.8 168.1 137 168.4 137.1 168.7 137.2 169 137.3 169.4 137.4 169.7 137.5 170 137.6 170.3 137.6 170.6 137.7 170.9 137.7 171.2 137.7 171.6 137.8 171.9 137.8 172.2 137.8 172.5 137.9 172.8 137.9 173.1 137.9 173.5 137.9 173.8 137.9 174.1 137.9 174.4 137.9 174.7 137.9 175 137.9 175.4 137.9 175.7 138 176 138 176.3 138 176.6 138 176.9 138 177.2 138 177.6 138 177.9 138 178.2 138 178.5 138 178.8 138 179.1 138 179.5 138 179.8 138 180.1 138 180.4 138 180.7 137.9 181 137.9 181.3 137.9 181.7 137.9 182 137.9 182.3 137.8 182.6 137.8 182.9 137.7 183.2 137.6 183.6 137.5 183.9 137.5 184.2 137.5 184.5 137.5 184.8 137.5"/>
          <polyline class="cls-4" points="184.8 137.5 185.1 137.6 185.5 137.6 185.8 137.7 186.1 137.8 186.4 137.8 186.7 137.9 187 137.9 187.3 137.9 187.7 137.9 188 137.9 188.3 138 188.6 138 188.9 138 189.2 138 189.6 138 189.9 138 190.2 138 190.5 138 190.8 138 191.1 138 191.5 138 191.8 138 192.1 138 192.4 138 192.7 137.9 193 137.9 193.3 138 193.7 138 194 138 194.3 138 194.6 138 194.9 138 195.2 138 195.6 138 195.9 138 196.2 138 196.5 138 196.8 138 197.1 138 197.4 138 197.8 138 198.1 137.9 198.4 137.9 198.7 137.9 199 137.8 199.3 137.7 199.7 137.7 200 137.6 200.3 137.5 200.6 137.5 200.9 137.5 201.2 137.5 201.6 137.6 201.9 137.6 202.2 137.7 202.5 137.7 202.8 137.8 203.1 137.8 203.4 137.9 203.8 137.9 204.1 137.9 204.4 137.9 204.7 138 205 138 205.3 138 205.7 138 206 138 206.3 138 206.6 138 206.9 138 207.2 138 207.6 138 207.9 138 208.2 138 208.5 138 208.8 138 209.1 138 209.4 138 209.8 138 210.1 138 210.4 138 210.7 138 211 138 211.3 138 211.7 137.9 212 137.9 212.3 137.9 212.6 137.9 212.9 137.9 213.2 137.9 213.5 138 213.9 138 214.2 138 214.5 138 214.8 138 215.1 138 215.4 138 215.8 138 216.1 138 216.4 137.9 216.7 137.9 217 137.9 217.3 137.9 217.7 137.9 218 137.9 218.3 137.9 218.6 137.9 218.9 137.9 219.2 137.9 219.5 137.9 219.9 137.9 220.2 137.9 220.5 138 220.8 138 221.1 138 221.4 138 221.8 138 222.1 138 222.4 138 222.7 137.9 223 137.9 223.3 137.9 223.7 137.9 224 137.9 224.3 137.9 224.6 137.9 224.9 137.9"/>
          <polyline class="cls-4" points="224.9 137.9 225.2 137.9 225.5 137.9 225.9 137.9 226.2 137.9 226.5 137.9 226.8 137.9 227.1 137.9 227.4 137.9 227.8 137.9 228.1 137.9 228.4 137.9 228.7 137.9 229 137.9 229.3 137.9 229.6 137.9 230 137.9 230.3 137.8 230.6 137.7 230.9 137.6 231.2 137.5 231.5 137.3 231.9 137.2 232.2 137.1 232.5 137 232.8 137 233.1 137.1 233.4 137.1 233.8 137.2 234.1 137.4 234.4 137.5 234.7 137.6 235 137.6 235.3 137.7 235.6 137.8 236 137.8 236.3 137.8 236.6 137.8 236.9 137.9 237.2 137.9 237.5 137.9 237.9 137.9 238.2 137.8 238.5 137.8 238.8 137.8 239.1 137.7 239.4 137.7 239.8 137.6 240.1 137.6 240.4 137.6 240.7 137.6 241 137.6 241.3 137.7 241.6 137.7 242 137.7 242.3 137.8 242.6 137.8 242.9 137.8 243.2 137.8 243.5 137.8 243.9 137.8 244.2 137.8 244.5 137.8 244.8 137.8 245.1 137.8 245.4 137.8 245.7 137.8 246.1 137.8 246.4 137.8 246.7 137.8 247 137.8 247.3 137.8 247.6 137.8 248 137.8 248.3 137.8 248.6 137.8 248.9 137.8 249.2 137.8 249.5 137.8 249.9 137.8 250.2 137.8 250.5 137.8 250.8 137.8 251.1 137.8 251.4 137.8 251.7 137.8 252.1 137.8 252.4 137.8 252.7 137.8 253 137.8 253.3 137.8 253.6 137.8 254 137.7 254.3 137.7 254.6 137.7 254.9 137.7 255.2 137.7 255.5 137.7 255.9 137.7 256.2 137.7 256.5 137.7 256.8 137.7 257.1 137.7 257.4 137.7 257.7 137.7 258.1 137.7 258.4 137.7 258.7 137.7 259 137.7 259.3 137.7 259.6 137.7 260 137.7 260.3 137.7 260.6 137.7 260.9 137.7 261.2 137.7 261.5 137.7 261.8 137.7 262.2 137.7 262.5 137.7 262.8 137.7 263.1 137.7 263.4 137.7 263.7 137.7 264.1 137.6 264.4 137.6 264.7 137.6 265 137.6"/>
          <polyline class="cls-4" points="265 137.6 265.3 137.6 265.6 137.6 266 137.6 266.3 137.6 266.6 137.6 266.9 137.6 267.2 137.6 267.5 137.6 267.8 137.6 268.2 137.6 268.5 137.6 268.8 137.6 269.1 137.6 269.4 137.6 269.7 137.6 270.1 137.6 270.4 137.6 270.7 137.6 271 137.6 271.3 137.6 271.6 137.6 271.9 137.6 272.3 137.6 272.6 137.6 272.9 137.6 273.2 137.5 273.5 137.5 273.8 137.5 274.2 137.5 274.5 137.5 274.8 137.5 275.1 137.5 275.4 137.5 275.7 137.5 276.1 137.5 276.4 137.5 276.7 137.5 277 137.5 277.3 137.5 277.6 137.5 277.9 137.5 278.3 137.5 278.6 137.5 278.9 137.5 279.2 137.5 279.5 137.5 279.8 137.5 280.2 137.5 280.5 137.5 280.8 137.5 281.1 137.5 281.4 137.5 281.7 137.5 282.1 137.5 282.4 137.5 282.7 137.5 283 137.5 283.3 137.5 283.6 137.5 283.9 137.5 284.3 137.5 284.6 137.5 284.9 137.5 285.2 137.5 285.5 137.5 285.8 137.5 286.2 137.5 286.5 137.5 286.8 137.5 287.1 137.5 287.4 137.5 287.7 137.5 288 137.5 288.4 137.5 288.7 137.5 289 137.5 289.3 137.5"/>
        </g>
        <g class="cls-10">
          <text class="cls-7" transform="translate(147 156.5)"><tspan x="0" y="0">Time (min)</tspan></text>
        </g>
        <g class="cls-12">
          <line class="cls-3" x1="90.4" y1="139.8" x2="279.8" y2="139.8"/>
          <line class="cls-3" x1="90.4" y1="139.8" x2="90.4" y2="142"/>
          <line class="cls-3" x1="185.1" y1="139.8" x2="185.1" y2="142"/>
          <line class="cls-3" x1="279.8" y1="139.8" x2="279.8" y2="142"/>
          <text class="cls-7" transform="translate(88.4 147.7)"><tspan x="0" y="0">1</tspan></text>
          <text class="cls-7" transform="translate(183.1 147.7)"><tspan x="0" y="0">2</tspan></text>
          <text class="cls-7" transform="translate(277.8 147.7)"><tspan x="0" y="0">3</tspan></text>
          <g>
            <rect class="cls-14" x="23.8" y="106.4" width="265.9" height="33.4"/>
            <rect class="cls-3" x="23.8" y="106.4" width="265.9" height="33.4"/>
          </g>
        </g>
      </g>
      <text class="cls-7" transform="translate(16 105.3) rotate(-90)"><tspan x="0" y="0">Abs. 254 nm (a.u)</tspan></text>
      <text class="cls-6" transform="translate(133.2 77)"><tspan x="0" y="0">SPAAC</tspan></text>
      <g>
        <path class="cls-5" d="M166.5,35.3v-4.3h1.4c.5,0,.9,0,1,0,.2,0,.5.2.6.4s.2.5.2.8,0,.5-.1.7-.2.3-.4.4-.3.2-.4.2c-.2,0-.5,0-.9,0h-.6v1.6h-.9ZM167.4,31.8v1.2h.5c.3,0,.6,0,.7,0s.2-.1.3-.2,0-.2,0-.3,0-.3-.1-.4-.2-.2-.3-.2c-.1,0-.3,0-.6,0h-.4Z"/>
        <path class="cls-5" d="M170.1,32.2h.9l.7,2.2.7-2.2h.9l-1.1,3-.2.5c0,.2-.1.3-.2.4s-.1.2-.2.2-.2.1-.3.1-.3,0-.4,0-.3,0-.5,0v-.6c0,0,.2,0,.3,0,.2,0,.3,0,.4-.2s.2-.3.2-.4l-1.2-3.1Z"/>
        <path class="cls-5" d="M174.7,35.3h-.8v-3.1h.8v.4c.1-.2.2-.3.4-.4s.2,0,.4,0,.4,0,.5.2l-.3.7c-.1,0-.3-.1-.4-.1s-.2,0-.3,0-.1.2-.2.3,0,.5,0,1v1Z"/>
        <path class="cls-5" d="M177,35.3h-.8v-3.1h.8v.4c.1-.2.2-.3.4-.4s.2,0,.4,0,.4,0,.5.2l-.3.7c-.1,0-.3-.1-.4-.1s-.2,0-.3,0-.1.2-.2.3,0,.5,0,1v1Z"/>
        <path class="cls-5" d="M178.4,33.7c0-.3,0-.5.2-.8s.3-.5.6-.6.5-.2.8-.2c.5,0,.9.2,1.2.5s.5.7.5,1.2-.2.9-.5,1.2-.7.5-1.1.5-.6,0-.8-.2-.5-.3-.6-.6-.2-.6-.2-.9ZM179.2,33.8c0,.3,0,.5.2.7s.3.2.5.2.4,0,.5-.2.2-.4.2-.7,0-.5-.2-.7-.3-.2-.5-.2-.4,0-.5.2-.2.4-.2.7Z"/>
        <path class="cls-5" d="M182.2,35.3v-4.3h.8v4.3h-.8Z"/>
        <path class="cls-5" d="M183.9,31.8v-.8h.8v.8h-.8ZM183.9,35.3v-3.1h.8v3.1h-.8Z"/>
        <path class="cls-5" d="M188.4,35.3h-.8v-.5c-.1.2-.3.3-.5.4s-.3.1-.5.1c-.4,0-.7-.1-.9-.4s-.4-.7-.4-1.2.1-.9.4-1.2.6-.4.9-.4.6.1.9.4v-1.5h.8v4.3ZM186.2,33.7c0,.3,0,.6.1.7.1.2.3.3.6.3s.4,0,.5-.2.2-.4.2-.7,0-.6-.2-.8-.3-.2-.5-.2-.4,0-.5.2-.2.4-.2.7Z"/>
        <path class="cls-5" d="M189.2,31.8v-.8h.8v.8h-.8ZM189.2,35.3v-3.1h.8v3.1h-.8Z"/>
        <path class="cls-5" d="M193.7,35.3h-.8v-1.6c0-.3,0-.6,0-.7s0-.2-.2-.2-.2,0-.3,0-.3,0-.4.1-.2.2-.2.3,0,.4,0,.7v1.4h-.8v-3.1h.8v.5c.3-.4.6-.5,1-.5s.3,0,.5,0,.3.1.3.3.1.2.2.3,0,.3,0,.6v1.9Z"/>
        <path class="cls-5" d="M196.3,34.3h.8c-.1.4-.3.7-.5.8s-.5.2-.9.2c-.5,0-.9-.2-1.2-.5-.2-.3-.3-.6-.3-1.1s.1-.9.4-1.2.6-.4,1-.4.8.2,1.1.5.4.8.4,1.4h-2.1c0,.2,0,.4.2.6s.3.2.5.2.2,0,.3-.1.2-.2.2-.3ZM196.4,33.5c0-.2,0-.4-.2-.5s-.3-.2-.4-.2-.3,0-.4.2-.2.3-.2.5h1.2Z"/>
        <path class="cls-5" d="M166.5,38.2h1.6c.4,0,.6,0,.8,0,.3,0,.5.2.6.4s.3.4.4.7.1.6.1,1,0,.7-.1.9c-.1.3-.3.6-.5.8-.2.1-.4.3-.6.3-.2,0-.4,0-.8,0h-1.6v-4.3ZM167.4,39v2.8h.6c.2,0,.4,0,.5,0,.1,0,.3,0,.3-.2s.2-.2.2-.4,0-.5,0-.8,0-.6,0-.8-.1-.3-.2-.4-.2-.2-.4-.2c-.1,0-.4,0-.7,0h-.4Z"/>
        <path class="cls-5" d="M170.9,42.5v-4.3h1.3l.8,2.9.8-2.9h1.3v4.3h-.8v-3.4l-.9,3.4h-.8l-.8-3.4v3.4h-.8Z"/>
        <path class="cls-5" d="M175.9,38.2h1.7c.3,0,.6,0,.8,0s.3,0,.4.2.2.2.3.4.1.3.1.5,0,.4-.2.6-.3.3-.4.4c.3,0,.5.2.6.4s.2.4.2.6,0,.4-.1.6-.2.3-.4.4-.4.2-.6.2c-.1,0-.5,0-1,0h-1.5v-4.3ZM176.7,39v1h.6c.3,0,.5,0,.6,0,.1,0,.3,0,.3-.2s.1-.2.1-.3,0-.2-.1-.3-.2-.1-.3-.2c0,0-.3,0-.7,0h-.5ZM176.7,40.7v1.1h.8c.3,0,.5,0,.6,0,.1,0,.2,0,.3-.2s.1-.2.1-.4,0-.2,0-.3-.2-.2-.3-.2-.4,0-.8,0h-.7Z"/>
        <path class="cls-5" d="M180,40.4c0-.4,0-.8.2-1.1,0-.2.2-.4.4-.6s.4-.3.6-.4c.3-.1.6-.2.9-.2.6,0,1.1.2,1.5.6s.6.9.6,1.6-.2,1.2-.6,1.6-.9.6-1.5.6-1.1-.2-1.5-.6-.6-.9-.6-1.6ZM180.9,40.4c0,.5.1.9.3,1.1s.5.4.9.4.6-.1.9-.4.3-.6.3-1.1-.1-.9-.3-1.1-.5-.4-.9-.4-.6.1-.9.4-.3.6-.3,1.1Z"/>
      </g>
      <text class="cls-6" transform="translate(54.8 119.2)"><tspan x="0" y="0">MeMe-Tet</tspan></text>
      <g>
        <path class="cls-5" d="M166.1,119.2v-4.3h1.4c.5,0,.9,0,1,0,.2,0,.5.2.6.4s.2.5.2.8,0,.5-.1.7-.2.3-.4.4-.3.2-.4.2c-.2,0-.5,0-.9,0h-.6v1.6h-.9ZM167,115.6v1.2h.5c.3,0,.6,0,.7,0s.2-.1.3-.2,0-.2,0-.3,0-.3-.1-.4-.2-.2-.3-.2c-.1,0-.3,0-.6,0h-.4Z"/>
        <path class="cls-5" d="M169.7,116.1h.9l.7,2.2.7-2.2h.9l-1.1,3-.2.5c0,.2-.1.3-.2.4s-.1.2-.2.2-.2.1-.3.1-.3,0-.4,0-.3,0-.5,0v-.6c0,0,.2,0,.3,0,.2,0,.3,0,.4-.2s.2-.3.2-.4l-1.2-3.1Z"/>
        <path class="cls-5" d="M174.2,119.2h-.8v-3.1h.8v.4c.1-.2.2-.3.4-.4s.2,0,.4,0,.4,0,.5.2l-.3.7c-.1,0-.3-.1-.4-.1s-.2,0-.3,0-.1.2-.2.3,0,.5,0,1v1Z"/>
        <path class="cls-5" d="M176.6,119.2h-.8v-3.1h.8v.4c.1-.2.2-.3.4-.4s.2,0,.4,0,.4,0,.5.2l-.3.7c-.1,0-.3-.1-.4-.1s-.2,0-.3,0-.1.2-.2.3,0,.5,0,1v1Z"/>
        <path class="cls-5" d="M177.9,117.6c0-.3,0-.5.2-.8s.3-.5.6-.6.5-.2.8-.2c.5,0,.9.2,1.2.5s.5.7.5,1.2-.2.9-.5,1.2-.7.5-1.1.5-.6,0-.8-.2-.5-.3-.6-.6-.2-.6-.2-.9ZM178.8,117.6c0,.3,0,.5.2.7s.3.2.5.2.4,0,.5-.2.2-.4.2-.7,0-.5-.2-.7-.3-.2-.5-.2-.4,0-.5.2-.2.4-.2.7Z"/>
        <path class="cls-5" d="M181.8,119.2v-4.3h.8v4.3h-.8Z"/>
        <path class="cls-5" d="M183.4,115.6v-.8h.8v.8h-.8ZM183.4,119.2v-3.1h.8v3.1h-.8Z"/>
        <path class="cls-5" d="M188,119.2h-.8v-.5c-.1.2-.3.3-.5.4s-.3.1-.5.1c-.4,0-.7-.1-.9-.4s-.4-.7-.4-1.2.1-.9.4-1.2.6-.4.9-.4.6.1.9.4v-1.5h.8v4.3ZM185.8,117.5c0,.3,0,.6.1.7.1.2.3.3.6.3s.4,0,.5-.2.2-.4.2-.7,0-.6-.2-.8-.3-.2-.5-.2-.4,0-.5.2-.2.4-.2.7Z"/>
        <path class="cls-5" d="M188.8,115.6v-.8h.8v.8h-.8ZM188.8,119.2v-3.1h.8v3.1h-.8Z"/>
        <path class="cls-5" d="M193.3,119.2h-.8v-1.6c0-.3,0-.6,0-.7s0-.2-.2-.2-.2,0-.3,0-.3,0-.4.1-.2.2-.2.3,0,.4,0,.7v1.4h-.8v-3.1h.8v.5c.3-.4.6-.5,1-.5s.3,0,.5,0,.3.1.3.3.1.2.2.3,0,.3,0,.6v1.9Z"/>
        <path class="cls-5" d="M195.9,118.2h.8c-.1.4-.3.7-.5.8s-.5.2-.9.2c-.5,0-.9-.2-1.2-.5-.2-.3-.3-.6-.3-1.1s.1-.9.4-1.2.6-.4,1-.4.8.2,1.1.5.4.8.4,1.4h-2.1c0,.2,0,.4.2.6s.3.2.5.2.2,0,.3-.1.2-.2.2-.3ZM196,117.3c0-.2,0-.4-.2-.5s-.3-.2-.4-.2-.3,0-.4.2-.2.3-.2.5h1.2Z"/>
        <path class="cls-5" d="M166.1,122.1h1.6c.4,0,.6,0,.8,0,.3,0,.5.2.6.4s.3.4.4.7.1.6.1,1,0,.7-.1.9c-.1.3-.3.6-.5.8-.2.1-.4.3-.6.3-.2,0-.4,0-.8,0h-1.6v-4.3ZM167,122.8v2.8h.6c.2,0,.4,0,.5,0,.1,0,.3,0,.3-.2s.2-.2.2-.4,0-.5,0-.8,0-.6,0-.8-.1-.3-.2-.4-.2-.2-.4-.2c-.1,0-.4,0-.7,0h-.4Z"/>
        <path class="cls-5" d="M170.4,126.4v-4.3h1.3l.8,2.9.8-2.9h1.3v4.3h-.8v-3.4l-.9,3.4h-.8l-.8-3.4v3.4h-.8Z"/>
        <path class="cls-5" d="M175.4,122.1h1.7c.3,0,.6,0,.8,0s.3,0,.4.2.2.2.3.4.1.3.1.5,0,.4-.2.6-.3.3-.4.4c.3,0,.5.2.6.4s.2.4.2.6,0,.4-.1.6-.2.3-.4.4-.4.2-.6.2c-.1,0-.5,0-1,0h-1.5v-4.3ZM176.3,122.8v1h.6c.3,0,.5,0,.6,0,.1,0,.3,0,.3-.2s.1-.2.1-.3,0-.2-.1-.3-.2-.1-.3-.2c0,0-.3,0-.7,0h-.5ZM176.3,124.5v1.1h.8c.3,0,.5,0,.6,0,.1,0,.2,0,.3-.2s.1-.2.1-.4,0-.2,0-.3-.2-.2-.3-.2-.4,0-.8,0h-.7Z"/>
        <path class="cls-5" d="M179.6,124.2c0-.4,0-.8.2-1.1,0-.2.2-.4.4-.6s.4-.3.6-.4c.3-.1.6-.2.9-.2.6,0,1.1.2,1.5.6s.6.9.6,1.6-.2,1.2-.6,1.6-.9.6-1.5.6-1.1-.2-1.5-.6-.6-.9-.6-1.6ZM180.5,124.2c0,.5.1.9.3,1.1s.5.4.9.4.6-.1.9-.4.3-.6.3-1.1-.1-.9-.3-1.1-.5-.4-.9-.4-.6.1-.9.4-.3.6-.3,1.1Z"/>
      </g>
      <text class="cls-7" transform="translate(6.2 10.7)"><tspan x="0" y="0">Reaction conditions: DMSO + 1 eq DIPEA</tspan></text>
    </g>
  </g>
</svg>